# xmcd CD database file
#
# Track frame offsets:
#	150
#	14475
#	27600
#	40725
#	55275
#	73050
#	85425
#	104850
#	121200
#	139650
#	155325
#
# Disc length: 2273 seconds
#
# Revision: 0
# Processed by: cddbd v1.5.1PL0 Copyright (c) Steve Scherf et al.
# Submitted via: CDex 1.51
#
DISCID=9d08df0b
DTITLE=Western Swingers - Trailerjenta
DYEAR=1985
DGENRE=Country
TTITLE0=Trailerjenta
TTITLE1=I min drøm
TTITLE2=Berthas kafé
TTITLE3=Fint at du er til
TTITLE4=Svar meg på brevet
TTITLE5=Raggen
TTITLE6=Elektronikk-dilla
TTITLE7=Liss
TTITLE8=Cowboysangen vår
TTITLE9=Et sekund av evighet
TTITLE10=Gambleren
EXTD=YEAR: 1985
EXTT0=
EXTT1=
EXTT2=
EXTT3=
EXTT4=
EXTT5=
EXTT6=
EXTT7=
EXTT8=
EXTT9=
EXTT10=
PLAYORDER=
